PathFileType	4	(X/Y/Z)	/Users/niels/Desktop/University/Third Semester/Perception and Action/Exam/Gymnastics Motion Tracking/Code for Gym Tracking/Analyzed Data/Webcam_Backflip/id1_3_trajectory_Sports2D/id1_3_trajectory_Sports2D_px_person00.trc
DataRate	CameraRate	NumFrames	NumMarkers	Units	OrigDataRate	OrigDataStartFrame	OrigNumFrames
29.87551867219917	29.87551867219917	9	22	m	29.87551867219917	90	241
Frame#	Time	Hip			RHip			RKnee			RAnkle			RBigToe			RSmallToe			RHeel			LHip			LKnee			LAnkle			LBigToe			LSmallToe			LHeel			Neck			Head			Nose			RShoulder			RElbow			RWrist			LShoulder			LElbow			LWrist		
		X1	Y1	Z1	X2	Y2	Z2	X3	Y3	Z3	X4	Y4	Z4	X5	Y5	Z5	X6	Y6	Z6	X7	Y7	Z7	X8	Y8	Z8	X9	Y9	Z9	X10	Y10	Z10	X11	Y11	Z11	X12	Y12	Z12	X13	Y13	Z13	X14	Y14	Z14	X15	Y15	Z15	X16	Y16	Z16	X17	Y17	Z17	X18	Y18	Z18	X19	Y19	Z19	X20	Y20	Z20	X21	Y21	Z21	X22	Y22	Z22
90	3.0125	0.8867438712010822	-0.626436282717103	0.0	0.8844321266881215	-0.6269257202374912	0.0	0.9733974336419419	-0.6961680825521209	0.0	0.9094926296555348	-0.7908958523815913	0.0	0.9466451319106561	-0.8214974816734163	0.0	0.9361659787040415	-0.8227601915379317	0.0	0.8917801747734979	-0.8025980791545896	0.0	0.8953094640836166	-0.6260268874355676	0.0	0.9771803557494106	-0.6928167946019823	0.0	0.9161761141437177	-0.7879086315521018	0.0	0.9538409719517458	-0.8177386107255497	0.0	0.94831891479482	-0.813892878671123	0.0	0.8982626068396505	-0.7994546740698318	0.0	0.9824171578175456	-0.5202105181350106	0.0	1.051389683781046	-0.5064513602751289	0.0	1.0251604429255001	-0.5376962972392691	0.0	0.9611565323927391	-0.5170070974699545	0.0	0.9083995836599681	-0.5508655441872342	0.0	0.9683435204136004	-0.5783323745583231	0.0	0.9679892824825074	-0.5251308448867867	0.0	0.9258977038399318	-0.5702685099974314	0.0	0.9916491253163486	-0.5928031012908552	0.0
91	3.0459722222222223	0.8874441613507769	-0.6147885187137905	0.0	0.8840696480682301	-0.6148275044315267	0.0	0.9674199514110606	-0.6920975057492387	0.0	0.9079925125318805	-0.7903291820998949	0.0	0.9479081169041349	-0.8191964838345162	0.0	0.9377425505970202	-0.820795452000408	0.0	0.8911896125762795	-0.8024031242323414	0.0	0.8970431595936004	-0.6136943052851123	0.0	0.9721141279264695	-0.6887078354337778	0.0	0.9151227639841171	-0.7866930365780123	0.0	0.9547561410175279	-0.8162467074697212	0.0	0.9489853630670696	-0.8127000852555932	0.0	0.8971711875519118	-0.7991070051350262	0.0	0.9802247114195498	-0.5028124254482227	0.0	1.0493380319986303	-0.4862735541510127	0.0	1.023290191817814	-0.5188257976935059	0.0	0.9581640161847146	-0.4996399972014285	0.0	0.9025676910356472	-0.5288047563503305	0.0	0.9574647714928958	-0.5509495045270092	0.0	0.967383599708838	-0.5101674773651514	0.0	0.9282618272562417	-0.5552887405037891	0.0	0.9921591696467079	-0.5721583194388359	0.0
92	3.0794444444444444	0.8882475341078423	-0.6054384200319989	0.0	0.8838163530437356	-0.6048929428072253	0.0	0.9606788405611172	-0.6899026900325028	0.0	0.9062196667989048	-0.7912913250348552	0.0	0.9483043865910838	-0.8175693031463438	0.0	0.9384450215611826	-0.8193226330008032	0.0	0.8904746299656051	-0.8036406398683003	0.0	0.8989859878459057	-0.6036591650235298	0.0	0.9662555689464718	-0.6863615425604026	0.0	0.9139445518621736	-0.7864926009621219	0.0	0.9551860310826609	-0.8148568497928085	0.0	0.9492252762531839	-0.8116573984176562	0.0	0.8963442895719045	-0.7998667666916599	0.0	0.9773089262889975	-0.48742866500665905	0.0	1.0470575021438473	-0.468128577663677	0.0	1.0207205825673564	-0.5019126765034139	0.0	0.9542854936975188	-0.4843321017816233	0.0	0.896838527298671	-0.509476821823778	0.0	0.9457123737690757	-0.5255610528962061	0.0	0.965848590472099	-0.4968892688586117	0.0	0.9312077666721686	-0.5424251398286642	0.0	0.9920743999142981	-0.5533844908812583	0.0
93	3.1129166666666666	0.8889261161246462	-0.5982914649331442	0.0	0.88380233985554	-0.597050359480961	0.0	0.9536784076774025	-0.6887304371422334	0.0	0.904492313798881	-0.7926981286075983	0.0	0.9482241085973285	-0.816062954603872	0.0	0.9386434359973699	-0.8179415249441194	0.0	0.8897460042368914	-0.8053849806855804	0.0	0.9005687634766489	-0.5958697290079851	0.0	0.9594703668640737	-0.685105539949544	0.0	0.9124470034611528	-0.7867335500208005	0.0	0.9550312270166902	-0.8133480017276031	0.0	0.9488778951246813	-0.8105424906652112	0.0	0.8955335589167992	-0.8010181534598431	0.0	0.9736320197051301	-0.47440062902415436	0.0	1.0445185292539065	-0.4526120646922317	0.0	1.017439808062683	-0.48734713329929685	0.0	0.9498478746481616	-0.4714829629695522	0.0	0.8914609425292357	-0.49368168359929776	0.0	0.9335552007128939	-0.5036890842484887	0.0	0.9632622583670496	-0.4853024503650877	0.0	0.9335258434866041	-0.5312975028804886	0.0	0.9906897766902482	-0.5371450870548978	0.0
94	3.146388888888889	0.8895035607855668	-0.5931951376335255	0.0	0.8841710928339184	-0.5912302537356001	0.0	0.9464844673926628	-0.6883051612654553	0.0	0.9028969962688159	-0.7942564854739165	0.0	0.9479302847369466	-0.8147338055505505	0.0	0.9385224010253819	-0.8167816909836226	0.0	0.8890238919965181	-0.807387297856563	0.0	0.9016090625832864	-0.5902439200185218	0.0	0.9517428948929031	-0.6847823366607617	0.0	0.9105674291395061	-0.787497930433666	0.0	0.9543047339565203	-0.8120035282031237	0.0	0.9479180456944809	-0.8095869901932253	0.0	0.8946115545744782	-0.8025035360852028	0.0	0.9692949131888581	-0.4636962376274418	0.0	1.0414323575674196	-0.4395134398443625	0.0	1.0136132074646589	-0.4750214781872273	0.0	0.9451735759181454	-0.46109648966832445	0.0	0.8867443689041861	-0.4815312926923203	0.0	0.9216347831357736	-0.48604454042666273	0.0	0.9599039785018155	-0.47547440764015786	0.0	0.9345255858738772	-0.5215735591246848	0.0	0.9878347706112549	-0.523566899163894	0.0
95	3.1798611111111112	0.8902356463549976	-0.5899665541339462	0.0	0.8850258182132166	-0.5873406873580801	0.0	0.9388954818234588	-0.6886386727278125	0.0	0.9013177801135989	-0.796113217465698	0.0	0.9474679617171852	-0.8138751084008294	0.0	0.9380771157743942	-0.8161732037630012	0.0	0.8882402029822989	-0.8097417743312684	0.0	0.9023675869120957	-0.5866535748948353	0.0	0.9434572307940996	-0.6854080034799781	0.0	0.9085507207685736	-0.7889787108565499	0.0	0.9532033954072304	-0.8111853545657354	0.0	0.9465800050100462	-0.8090705206996698	0.0	0.8937705370856674	-0.8044539912706292	0.0	0.9644642440496402	-0.45512069720877396	0.0	1.0373734587195087	-0.42828574945460196	0.0	1.0094089445661012	-0.4646650483279106	0.0	0.9403922760497538	-0.45295610368282163	0.0	0.8830149467434417	-0.4725979956714096	0.0	0.9105561742355722	-0.47257648523652185	0.0	0.9562048748430908	-0.4675795800375715	0.0	0.9342405871307236	-0.5129285472370638	0.0	0.9836512035228535	-0.5122698431670756	0.0
96	3.2133333333333334	0.8914068446373391	-0.5883569783939037	0.0	0.8864132464916241	-0.5851795689925064	0.0	0.9308681602051111	-0.6897387923140145	0.0	0.8996356091339571	-0.7984532950006437	0.0	0.9468546353669366	-0.8137051899865724	0.0	0.9373393271498431	-0.8163640224533849	0.0	0.8873259130162277	-0.812581048915093	0.0	0.9032517280628877	-0.5848460329429038	0.0	0.9352837009840362	-0.6869493188010154	0.0	0.9067844164254941	-0.7911696284528082	0.0	0.9520413544310152	-0.8110852664344608	0.0	0.9452599618205206	-0.8091225135947917	0.0	0.8933425385857048	-0.8069010713187695	0.0	0.9592986210356914	-0.4484674908550581	0.0	1.0320719600633228	-0.41853629105583684	0.0	1.0049139389250283	-0.4560878758794516	0.0	0.935519472033817	-0.44683521366063894	0.0	0.8805421122741915	-0.4661594725405437	0.0	0.9007192533025902	-0.46269372535161124	0.0	0.9524428223398653	-0.46165168269240053	0.0	0.9331028170808481	-0.5048291030457488	0.0	0.9782933833488737	-0.5024594926276755	0.0
97	3.2468055555555555	0.8931230601245067	-0.5880643589230564	0.0	0.8882866592239689	-0.5844488046429103	0.0	0.922750125861023	-0.6915046638763	0.0	0.8978469941380752	-0.801272887798488	0.0	0.9461862915713876	-0.8142566882483441	0.0	0.936454324156757	-0.8174167611712103	0.0	0.8862707570737666	-0.8158959566185632	0.0	0.9045268959562516	-0.584464256765223	0.0	0.9279061244193634	-0.6892588407732729	0.0	0.905563496283544	-0.7938647591100982	0.0	0.9511057559262438	-0.8117118003810354	0.0	0.9443140627250831	-0.8097433819751179	0.0	0.8935189615769985	-0.8097367788374341	0.0	0.953946304444114	-0.44358022197421504	0.0	1.0255784974885753	-0.4101974829954612	0.0	1.0001776464776149	-0.44924133768958047	0.0	0.9306008185976733	-0.44261009757575664	0.0	0.8793810167306715	-0.46148670784968576	0.0	0.8922810791058662	-0.455575052066845	0.0	0.94870397167234	-0.45752179133096404	0.0	0.9315268071716358	-0.4966091722853338	0.0	0.9718039746010482	-0.4931053310654197	0.0
98	3.2802777777777776	0.8952518069422184	-0.5887953635186269	0.0	0.8904805970034843	-0.5848544417237308	0.0	0.9151689246499657	-0.6937621024366776	0.0	0.8960677282561593	-0.8043697379653969	0.0	0.9455647314986276	-0.8154116282027373	0.0	0.9356091644981765	-0.819222933037946	0.0	0.885146234918211	-0.8194870642112673	0.0	0.9062045614294278	-0.585157530750456	0.0	0.9218130577835132	-0.692093348048834	0.0	0.9049752009634505	-0.7967997169712598	0.0	0.9505149351371107	-0.8129719556720569	0.0	0.943886016379256	-0.8108854268048161	0.0	0.8942278536348015	-0.8127756229831665	0.0	0.9485648634966575	-0.44033969924278654	0.0	1.0182506375339815	-0.4034625006823089	0.0	0.9952738745163765	-0.44414137030967027	0.0	0.9257231995956059	-0.4401998050499785	0.0	0.87920891659947	-0.45807434229229166	0.0	0.8851731350226547	-0.450388946184353	0.0	0.9449744463035722	-0.4549305511970566	0.0	0.9296655270481883	-0.48779074833698005	0.0	0.9642115692628336	-0.4832044212175544	0.0
